solid Skyprint
facet normal 1.1439020464169964e-13 -0.9993098657771157 -0.037145553711356215
  outer loop
    vertex -626.60397061244 617.2275756853054 28.149999999999928
    vertex -637.8455502123717 616.2275756853031 55.05254326381808
    vertex -639.0870717695752 617.227575685303 28.149999999999885
  endloop
endfacet
facet normal 1.1439020464169964e-13 -0.9993098657771157 -0.037145553711356215
  outer loop
    vertex -637.8455502123717 616.2275756853031 55.05254326381808
    vertex -626.60397061244 617.2275756853054 28.149999999999928
    vertex -627.8455502123717 616.2275756853031 55.05254326381802
  endloop
endfacet
facet normal -0.9986178293324998 -0.05255883312295511 -8.279265576879353e-18
  outer loop
    vertex -640.3455502123721 618.2275756853027 28.149999999999885
    vertex -639.3455502123685 599.2275756853027 55.05254326381745
    vertex -640.3455502123721 618.2275756853027 55.05254326381812
  endloop
endfacet
facet normal 0.8552497485478908 0.19830434789036566 0.4787726529539323
  outer loop
    vertex -625.3455502123718 614.2237483530918 10.48390575316733
    vertex -628.5154231934479 604.5576541062592 20.15000000000049
    vertex -615.3455502123719 578.1790336478457 7.549999999999804
  endloop
endfacet
facet normal 0.9112789091110286 0.35662033362814416 0.20589484561874064
  outer loop
    vertex -628.5154231934479 604.5576541062592 20.15000000000049
    vertex -615.3455502123719 575.6790336478454 11.880127018921804
    vertex -615.3455502123719 578.1790336478457 7.549999999999804
  endloop
endfacet
facet normal -0.9428650500681209 -0.2876540264052834 -0.16810906713460874
  outer loop
    vertex -640.3455502123721 618.2275756853027 28.149999999999885
    vertex -636.1749299413854 604.5572226582301 28.149999999999814
    vertex -639.3455502123685 599.2275756853027 55.05254326381745
  endloop
endfacet
facet normal -0.850158465737159 -0.20582973452975667 -0.48462841798521256
  outer loop
    vertex -626.6039706124398 613.5166415719042 11.191012534355005
    vertex -616.3455502123718 577.6790336478454 8.416025403783989
    vertex -629.3100793776242 605.2647328920913 19.442921214169303
  endloop
endfacet
facet normal -0.9150044693726322 -0.34939249529875277 -0.20172185121354297
  outer loop
    vertex -629.3100793776242 605.2647328920913 19.442921214169303
    vertex -616.3455502123718 577.6790336478454 8.416025403783989
    vertex -616.3455502123718 576.4290336478455 10.581088913245141
  endloop
endfacet
facet normal -0.9112695486839278 0.3566382722465866 0.20590520248493072
  outer loop
    vertex -637.1749299413854 604.5573490264356 20.150305079825376
    vertex -650.3455502123718 578.1790336478459 7.549999999999889
    vertex -650.3455502123718 575.6790336478456 11.880127018921877
  endloop
endfacet
facet normal -0.8552287954737173 0.19829517928947937 0.47881387747550486
  outer loop
    vertex -640.3455502123718 614.2237483530901 10.483905753169088
    vertex -650.3455502123718 578.1790336478459 7.549999999999889
    vertex -637.1749299413854 604.5573490264356 20.150305079825376
  endloop
endfacet
facet normal 0.9724987157901576 0.20054632319753118 -0.11843740979287729
  outer loop
    vertex -639.087071769575 613.5166415719036 11.191012534355638
    vertex -635.3803287706623 605.5572622493831 28.149999999999817
    vertex -636.3803287706623 605.2644838027946 19.44317030346741
  endloop
endfacet
facet normal 5.3164763710872076e-14 -0.97688611894578 0.21376040468489818
  outer loop
    vertex -639.0870717695752 617.227575685303 28.149999999999885
    vertex -639.087071769575 613.5166415719036 11.191012534355638
    vertex -626.6039706124398 613.5166415719042 11.191012534355005
  endloop
endfacet
facet normal 1.8293683569960335e-13 -0.97688611894576 0.2137604046849894
  outer loop
    vertex -626.60397061244 617.2275756853054 28.149999999999928
    vertex -639.0870717695752 617.227575685303 28.149999999999885
    vertex -626.6039706124398 613.5166415719042 11.191012534355005
  endloop
endfacet
facet normal -0.9640998360722983 0.25940236666971683 -0.05676194369044873
  outer loop
    vertex -626.60397061244 617.2275756853054 28.149999999999928
    vertex -626.6039706124398 613.5166415719042 11.191012534355005
    vertex -629.3100793776242 605.2647328920913 19.442921214169303
  endloop
endfacet
facet normal -0.9497134960213777 -0.2897433848483952 0.11871413736976592
  outer loop
    vertex -640.3455502123721 618.2275756853027 28.149999999999885
    vertex -637.1749299413854 604.5573490264356 20.150305079825376
    vertex -636.1749299413854 604.5572226582301 28.149999999999814
  endloop
endfacet
facet normal -0.9463431175146686 0.30053660603184856 -0.11879584322473533
  outer loop
    vertex -626.60397061244 617.2275756853054 28.149999999999928
    vertex -629.3100793776242 605.2647328920913 19.442921214169303
    vertex -630.3100793776242 605.5576145148474 28.149999999999928
  endloop
endfacet
facet normal -0.9644067147710167 -0.2578831275372665 0.05844639455238338
  outer loop
    vertex -640.3455502123721 618.2275756853027 28.149999999999885
    vertex -640.3455502123718 614.2237483530901 10.483905753169088
    vertex -637.1749299413854 604.5573490264356 20.150305079825376
  endloop
endfacet
facet normal 0.9509958425042918 0.3020567699877057 -0.0660955009372531
  outer loop
    vertex -639.0870717695752 617.227575685303 28.149999999999885
    vertex -635.3803287706623 605.5572622493831 28.149999999999817
    vertex -639.087071769575 613.5166415719036 11.191012534355638
  endloop
endfacet
facet normal -6.943765947084187e-05 0.9994344791157981 -0.03362613764536588
  outer loop
    vertex -630.3100793776242 605.5576145148474 28.149999999999928
    vertex -629.3100793776242 605.2647328920913 19.442921214169303
    vertex -635.3803287706623 605.5572622493831 28.149999999999817
  endloop
endfacet
facet normal -1.8706678257727982e-13 0.9752662294613095 -0.22103344016759222
  outer loop
    vertex -625.3455502123721 618.2275756853055 28.14999999999993
    vertex -625.3455502123718 614.2237483530918 10.48390575316733
    vertex -640.3455502123721 618.2275756853027 28.149999999999885
  endloop
endfacet
facet normal -3.6394586619937045e-05 0.9994352547865695 -0.03360312731189201
  outer loop
    vertex -635.3803287706623 605.5572622493831 28.149999999999817
    vertex -629.3100793776242 605.2647328920913 19.442921214169303
    vertex -636.3803287706623 605.2644838027946 19.44317030346741
  endloop
endfacet
facet normal -1.9250971187526954e-13 1.0 2.4196210330442614e-29
  outer loop
    vertex -640.3455502123721 618.2275756853027 55.05254326381812
    vertex -625.3455502123721 618.2275756853055 55.05254326381802
    vertex -625.3455502123721 618.2275756853055 28.14999999999993
  endloop
endfacet
facet normal -1.3153039135221014e-13 0.9752662294613197 -0.22103344016754736
  outer loop
    vertex -640.3455502123721 618.2275756853027 28.149999999999885
    vertex -625.3455502123718 614.2237483530918 10.48390575316733
    vertex -640.3455502123718 614.2237483530901 10.483905753169088
  endloop
endfacet
facet normal -1.9250971187526956e-13 1.0 -2.4196210330442362e-29
  outer loop
    vertex -640.3455502123721 618.2275756853027 55.05254326381812
    vertex -625.3455502123721 618.2275756853055 28.14999999999993
    vertex -640.3455502123721 618.2275756853027 28.149999999999885
  endloop
endfacet
facet normal 3.52299119706991e-05 -0.9999999991753958 -2.0200535023423632e-05
  outer loop
    vertex -636.1749299413854 604.5572226582301 28.149999999999814
    vertex -637.1749299413854 604.5573490264356 20.150305079825376
    vertex -628.5154231934479 604.5576541062592 20.15000000000049
  endloop
endfacet
facet normal 6.478678443054026e-05 -0.9999999978685448 8.098348053818456e-06
  outer loop
    vertex -629.515423193448 604.5576541062592 28.14999999999993
    vertex -636.1749299413854 604.5572226582301 28.149999999999814
    vertex -628.5154231934479 604.5576541062592 20.15000000000049
  endloop
endfacet
facet normal -1.1133095347769576e-28 -1.0 -1.6919798895289794e-14
  outer loop
    vertex -626.7455502123686 600.1275756853055 58.05254326381744
    vertex -638.9455502123719 600.1275756853055 55.052543263817526
    vertex -626.7455502123687 600.1275756853055 55.05254326381745
  endloop
endfacet
facet normal -1.1133095347769576e-28 -1.0 -1.6919798895289794e-14
  outer loop
    vertex -638.9455502123719 600.1275756853055 55.052543263817526
    vertex -626.7455502123686 600.1275756853055 58.05254326381744
    vertex -638.9455502123717 600.1275756853055 58.05254326381753
  endloop
endfacet
facet normal -1.0 -1.0337874251500324e-27 3.0549636894260676e-14
  outer loop
    vertex -638.9455502123717 617.327575685303 58.052543263818094
    vertex -638.9455502123719 600.1275756853055 55.052543263817526
    vertex -638.9455502123717 600.1275756853055 58.05254326381753
  endloop
endfacet
facet normal -1.0 -1.0337874251500324e-27 3.0549636894260676e-14
  outer loop
    vertex -638.9455502123719 600.1275756853055 55.052543263817526
    vertex -638.9455502123717 617.327575685303 58.052543263818094
    vertex -638.9455502123719 617.327575685303 55.0525432638181
  endloop
endfacet
facet normal -9.542653155233693e-29 -1.0 -1.6919798895289794e-14
  outer loop
    vertex -627.8455502123717 616.2275756853031 58.05254326381803
    vertex -637.8455502123717 616.2275756853031 55.05254326381808
    vertex -627.8455502123717 616.2275756853031 55.05254326381802
  endloop
endfacet
facet normal -9.542653155233693e-29 -1.0 -1.6919798895289794e-14
  outer loop
    vertex -637.8455502123717 616.2275756853031 55.05254326381808
    vertex -627.8455502123717 616.2275756853031 58.05254326381803
    vertex -637.8455502123716 616.2275756853031 58.05254326381807
  endloop
endfacet
facet normal 3.054963689426067e-14 -1.6919798895289794e-14 1.0
  outer loop
    vertex -638.9455502123717 600.1275756853055 58.05254326381753
    vertex -637.8455502123687 601.2275756853032 58.05254326381753
    vertex -638.9455502123717 617.327575685303 58.052543263818094
  endloop
endfacet
facet normal 3.054963689426067e-14 -1.6919798895289794e-14 1.0
  outer loop
    vertex -637.8455502123687 601.2275756853032 58.05254326381753
    vertex -638.9455502123717 600.1275756853055 58.05254326381753
    vertex -626.7455502123686 600.1275756853055 58.05254326381744
  endloop
endfacet
facet normal 3.054963689426067e-14 -1.6919798895289794e-14 1.0
  outer loop
    vertex -638.9455502123717 617.327575685303 58.052543263818094
    vertex -637.8455502123687 601.2275756853032 58.05254326381753
    vertex -637.8455502123716 616.2275756853031 58.05254326381807
  endloop
endfacet
facet normal 3.054963689426067e-14 -1.6919798895289794e-14 1.0
  outer loop
    vertex -637.8455502123687 601.2275756853032 58.05254326381753
    vertex -626.7455502123686 600.1275756853055 58.05254326381744
    vertex -627.8455502123688 601.2275756853053 58.05254326381746
  endloop
endfacet
facet normal 3.054963689426067e-14 -1.6919798895289794e-14 1.0
  outer loop
    vertex -637.8455502123716 616.2275756853031 58.05254326381807
    vertex -626.7455502123686 617.327575685303 58.05254326381744
    vertex -638.9455502123717 617.327575685303 58.052543263818094
  endloop
endfacet
facet normal 3.054963689426067e-14 -1.6919798895289794e-14 1.0
  outer loop
    vertex -626.7455502123686 617.327575685303 58.05254326381744
    vertex -637.8455502123716 616.2275756853031 58.05254326381807
    vertex -627.8455502123717 616.2275756853031 58.05254326381803
  endloop
endfacet
facet normal 3.054963689426067e-14 -1.6919798895289794e-14 1.0
  outer loop
    vertex -626.7455502123686 617.327575685303 58.05254326381744
    vertex -627.8455502123717 616.2275756853031 58.05254326381803
    vertex -627.8455502123688 601.2275756853053 58.05254326381746
  endloop
endfacet
facet normal 3.054963689426067e-14 -1.6919798895289794e-14 1.0
  outer loop
    vertex -626.7455502123686 617.327575685303 58.05254326381744
    vertex -627.8455502123688 601.2275756853053 58.05254326381746
    vertex -626.7455502123686 600.1275756853055 58.05254326381744
  endloop
endfacet
facet normal 9.224564716723364e-28 1.0 1.6919798895289794e-14
  outer loop
    vertex -638.9455502123719 617.327575685303 55.0525432638181
    vertex -626.7455502123686 617.327575685303 58.05254326381744
    vertex -626.7455502123687 617.327575685303 55.05254326381745
  endloop
endfacet
facet normal 9.224564716723364e-28 1.0 1.6919798895289794e-14
  outer loop
    vertex -626.7455502123686 617.327575685303 58.05254326381744
    vertex -638.9455502123719 617.327575685303 55.0525432638181
    vertex -638.9455502123717 617.327575685303 58.052543263818094
  endloop
endfacet
facet normal 1.0 0.0 -3.0549636894260676e-14
  outer loop
    vertex -626.7455502123687 617.327575685303 55.05254326381745
    vertex -626.7455502123686 600.1275756853055 58.05254326381744
    vertex -626.7455502123687 600.1275756853055 55.05254326381745
  endloop
endfacet
facet normal 1.0 0.0 -3.0549636894260676e-14
  outer loop
    vertex -626.7455502123686 600.1275756853055 58.05254326381744
    vertex -626.7455502123687 617.327575685303 55.05254326381745
    vertex -626.7455502123686 617.327575685303 58.05254326381744
  endloop
endfacet
facet normal 0.9986178293325195 -0.05255883312257672 -4.139632788439803e-18
  outer loop
    vertex -625.3455502123721 618.2275756853055 55.05254326381802
    vertex -626.3455502123685 599.2275756853055 55.05254326381741
    vertex -625.3455502123721 618.2275756853055 28.14999999999993
  endloop
endfacet
facet normal 0.9428813200214843 -0.2876165249364216 -0.16808197683880394
  outer loop
    vertex -625.3455502123721 618.2275756853055 28.14999999999993
    vertex -626.3455502123685 599.2275756853055 55.05254326381741
    vertex -629.515423193448 604.5576541062592 28.14999999999993
  endloop
endfacet
facet normal 0.9968392583564878 0.06645595055729644 -0.04353274210078755
  outer loop
    vertex -639.0870717695752 617.227575685303 28.149999999999885
    vertex -637.8455502123717 616.2275756853031 55.05254326381808
    vertex -636.8455502123687 601.2275756853032 55.05254326381747
  endloop
endfacet
facet normal 0.948290835795738 0.30119760157427694 0.10012240284633417
  outer loop
    vertex -639.0870717695752 617.227575685303 28.149999999999885
    vertex -636.8455502123687 601.2275756853032 55.05254326381747
    vertex -635.3803287706623 605.5572622493831 28.149999999999817
  endloop
endfacet
facet normal 0.9497252597295021 -0.28970420035632455 0.1187156574662011
  outer loop
    vertex -625.3455502123721 618.2275756853055 28.14999999999993
    vertex -629.515423193448 604.5576541062592 28.14999999999993
    vertex -628.5154231934479 604.5576541062592 20.15000000000049
  endloop
endfacet
facet normal 0.964420478867536 -0.25783416367030265 0.05843529742671022
  outer loop
    vertex -625.3455502123721 618.2275756853055 28.14999999999993
    vertex -628.5154231934479 604.5576541062592 20.15000000000049
    vertex -625.3455502123718 614.2237483530918 10.48390575316733
  endloop
endfacet
facet normal -0.9483055493644963 0.3011598288321207 0.10009666598997535
  outer loop
    vertex -626.60397061244 617.2275756853054 28.149999999999928
    vertex -630.3100793776242 605.5576145148474 28.149999999999928
    vertex -628.8455502123688 601.2275756853053 55.05254326381746
  endloop
endfacet
facet normal -0.9968391650243267 0.06645594433477722 -0.043534888723602214
  outer loop
    vertex -626.60397061244 617.2275756853054 28.149999999999928
    vertex -628.8455502123688 601.2275756853053 55.05254326381746
    vertex -627.8455502123717 616.2275756853031 55.05254326381802
  endloop
endfacet
facet normal -2.928094927036971e-15 -0.8660254037844122 -0.5000000000000457
  outer loop
    vertex -615.3455502123719 578.1790336478457 7.549999999999804
    vertex -616.3455502123718 577.6790336478454 8.416025403783989
    vertex -650.3455502123718 578.1790336478459 7.549999999999889
  endloop
endfacet
facet normal -2.928094927036971e-15 -0.8660254037844122 -0.5000000000000457
  outer loop
    vertex -616.3455502123718 577.6790336478454 8.416025403783989
    vertex -615.3455502123719 578.1790336478457 7.549999999999804
    vertex -615.3455502123719 575.6790336478454 11.880127018921804
  endloop
endfacet
facet normal -2.928094927036971e-15 -0.8660254037844122 -0.5000000000000457
  outer loop
    vertex -616.3455502123718 577.6790336478454 8.416025403783989
    vertex -615.3455502123719 575.6790336478454 11.880127018921804
    vertex -616.3455502123718 576.4290336478455 10.581088913245141
  endloop
endfacet
facet normal -2.928094927036971e-15 -0.8660254037844122 -0.5000000000000457
  outer loop
    vertex -616.3455502123718 576.4290336478455 10.581088913245141
    vertex -615.3455502123719 575.6790336478454 11.880127018921804
    vertex -649.3455502123718 576.4290336478455 10.581088913245203
  endloop
endfacet
facet normal -2.928094927036971e-15 -0.8660254037844122 -0.5000000000000457
  outer loop
    vertex -650.3455502123718 578.1790336478459 7.549999999999889
    vertex -649.3455502123718 577.6790336478454 8.416025403784051
    vertex -650.3455502123718 575.6790336478456 11.880127018921877
  endloop
endfacet
facet normal -2.928094927036971e-15 -0.8660254037844122 -0.5000000000000457
  outer loop
    vertex -649.3455502123718 577.6790336478454 8.416025403784051
    vertex -650.3455502123718 578.1790336478459 7.549999999999889
    vertex -616.3455502123718 577.6790336478454 8.416025403783989
  endloop
endfacet
facet normal -2.928094927036971e-15 -0.8660254037844122 -0.5000000000000457
  outer loop
    vertex -650.3455502123718 575.6790336478456 11.880127018921877
    vertex -649.3455502123718 577.6790336478454 8.416025403784051
    vertex -649.3455502123718 576.4290336478455 10.581088913245203
  endloop
endfacet
facet normal -2.928094927036971e-15 -0.8660254037844122 -0.5000000000000457
  outer loop
    vertex -650.3455502123718 575.6790336478456 11.880127018921877
    vertex -649.3455502123718 576.4290336478455 10.581088913245203
    vertex -615.3455502123719 575.6790336478454 11.880127018921804
  endloop
endfacet
facet normal 1.7033387880586029e-15 -0.07720117055735311 0.9970155361199617
  outer loop
    vertex -616.3455502123718 577.6790336478454 8.416025403783989
    vertex -639.087071769575 613.5166415719036 11.191012534355638
    vertex -649.3455502123718 577.6790336478454 8.416025403784051
  endloop
endfacet
facet normal 5.369646147118238e-14 -0.0772011705573222 0.997015536119964
  outer loop
    vertex -616.3455502123718 577.6790336478454 8.416025403783989
    vertex -626.6039706124398 613.5166415719042 11.191012534355005
    vertex -639.087071769575 613.5166415719036 11.191012534355638
  endloop
endfacet
facet normal 4.454216701476826e-16 -0.275312950261712 0.961354658499241
  outer loop
    vertex -615.3455502123719 575.6790336478454 11.880127018921804
    vertex -637.1749299413854 604.5573490264356 20.150305079825376
    vertex -650.3455502123718 575.6790336478456 11.880127018921877
  endloop
endfacet
facet normal 4.356780600640327e-05 -0.27528251281640037 0.9613633736726892
  outer loop
    vertex -615.3455502123719 575.6790336478454 11.880127018921804
    vertex -628.5154231934479 604.5576541062592 20.15000000000049
    vertex -637.1749299413854 604.5573490264356 20.150305079825376
  endloop
endfacet
facet normal -1.257327319543692e-13 0.08112797460471559 -0.9967036930485091
  outer loop
    vertex -625.3455502123718 614.2237483530918 10.48390575316733
    vertex -650.3455502123718 578.1790336478459 7.549999999999889
    vertex -640.3455502123718 614.2237483530901 10.483905753169088
  endloop
endfacet
facet normal -1.9999734671553772e-15 0.08112797460463038 -0.996703693048516
  outer loop
    vertex -615.3455502123719 578.1790336478457 7.549999999999804
    vertex -650.3455502123718 578.1790336478459 7.549999999999889
    vertex -625.3455502123718 614.2237483530918 10.48390575316733
  endloop
endfacet
facet normal -1.3374926479950513e-15 0.29377196212858414 -0.9558755328321369
  outer loop
    vertex -616.3455502123718 576.4290336478455 10.581088913245141
    vertex -649.3455502123718 576.4290336478455 10.581088913245203
    vertex -636.3803287706623 605.2644838027946 19.44317030346741
  endloop
endfacet
facet normal -4.402517889347315e-05 0.29374401301709907 -0.9558841210514977
  outer loop
    vertex -616.3455502123718 576.4290336478455 10.581088913245141
    vertex -636.3803287706623 605.2644838027946 19.44317030346741
    vertex -629.3100793776242 605.2647328920913 19.442921214169303
  endloop
endfacet
facet normal 0.9467916046467008 0.06311944030995291 0.3155972015488789
  outer loop
    vertex -637.8455502123717 616.2275756853031 55.05254326381808
    vertex -637.8455502123687 601.2275756853032 58.05254326381753
    vertex -636.8455502123687 601.2275756853032 55.05254326381747
  endloop
endfacet
facet normal 1.0 1.9250971187527294e-13 -3.007964248051082e-14
  outer loop
    vertex -637.8455502123716 616.2275756853031 58.05254326381807
    vertex -637.8455502123687 601.2275756853032 58.05254326381753
    vertex -637.8455502123717 616.2275756853031 55.05254326381808
  endloop
endfacet
facet normal -0.94868329805051 -1.9452543605593528e-13 0.3162277660168498
  outer loop
    vertex -627.8455502123717 616.2275756853031 58.05254326381803
    vertex -628.8455502123688 601.2275756853053 55.05254326381746
    vertex -627.8455502123688 601.2275756853053 58.05254326381746
  endloop
endfacet
facet normal -0.997785157856621 0.06651901052359505 0.0
  outer loop
    vertex -627.8455502123717 616.2275756853031 55.05254326381802
    vertex -628.8455502123688 601.2275756853053 55.05254326381746
    vertex -627.8455502123717 616.2275756853031 58.05254326381803
  endloop
endfacet
facet normal 1.3210515382163862e-05 -0.9809341984417952 -0.19434016093652667
  outer loop
    vertex -629.515423193448 604.5576541062592 28.14999999999993
    vertex -639.3455502123685 599.2275756853027 55.05254326381745
    vertex -636.1749299413854 604.5572226582301 28.149999999999814
  endloop
endfacet
facet normal 1.3210515382163862e-05 -0.9809341984417952 -0.19434016093652667
  outer loop
    vertex -639.3455502123685 599.2275756853027 55.05254326381745
    vertex -629.515423193448 604.5576541062592 28.14999999999993
    vertex -626.3455502123685 599.2275756853055 55.05254326381741
  endloop
endfacet
facet normal -1.9657020395167358e-05 0.9872944706675374 0.15890131466702428
  outer loop
    vertex -636.8455502123687 601.2275756853032 55.05254326381747
    vertex -630.3100793776242 605.5576145148474 28.149999999999928
    vertex -635.3803287706623 605.5572622493831 28.149999999999817
  endloop
endfacet
facet normal -1.9657020395167358e-05 0.9872944706675374 0.15890131466702428
  outer loop
    vertex -630.3100793776242 605.5576145148474 28.149999999999928
    vertex -636.8455502123687 601.2275756853032 55.05254326381747
    vertex -628.8455502123688 601.2275756853053 55.05254326381746
  endloop
endfacet
facet normal 1.561099645664797e-14 -2.8200422701890835e-14 1.0
  outer loop
    vertex -626.3455502123685 599.2275756853055 55.05254326381741
    vertex -638.9455502123719 600.1275756853055 55.052543263817526
    vertex -639.3455502123685 599.2275756853027 55.05254326381745
  endloop
endfacet
facet normal 1.561099645664797e-14 -2.8200422701890835e-14 1.0
  outer loop
    vertex -638.9455502123719 600.1275756853055 55.052543263817526
    vertex -626.3455502123685 599.2275756853055 55.05254326381741
    vertex -626.7455502123687 600.1275756853055 55.05254326381745
  endloop
endfacet
facet normal 1.561099645664797e-14 -2.8200422701890835e-14 1.0
  outer loop
    vertex -626.7455502123687 600.1275756853055 55.05254326381745
    vertex -626.3455502123685 599.2275756853055 55.05254326381741
    vertex -626.7455502123687 617.327575685303 55.05254326381745
  endloop
endfacet
facet normal 1.561099645664797e-14 -2.8200422701890835e-14 1.0
  outer loop
    vertex -640.3455502123721 618.2275756853027 55.05254326381812
    vertex -638.9455502123719 617.327575685303 55.0525432638181
    vertex -625.3455502123721 618.2275756853055 55.05254326381802
  endloop
endfacet
facet normal 1.561099645664797e-14 -2.8200422701890835e-14 1.0
  outer loop
    vertex -638.9455502123719 617.327575685303 55.0525432638181
    vertex -640.3455502123721 618.2275756853027 55.05254326381812
    vertex -639.3455502123685 599.2275756853027 55.05254326381745
  endloop
endfacet
facet normal 1.561099645664797e-14 -2.8200422701890835e-14 1.0
  outer loop
    vertex -638.9455502123719 617.327575685303 55.0525432638181
    vertex -639.3455502123685 599.2275756853027 55.05254326381745
    vertex -638.9455502123719 600.1275756853055 55.052543263817526
  endloop
endfacet
facet normal 1.561099645664797e-14 -2.8200422701890835e-14 1.0
  outer loop
    vertex -625.3455502123721 618.2275756853055 55.05254326381802
    vertex -638.9455502123719 617.327575685303 55.0525432638181
    vertex -626.7455502123687 617.327575685303 55.05254326381745
  endloop
endfacet
facet normal 1.561099645664797e-14 -2.8200422701890835e-14 1.0
  outer loop
    vertex -625.3455502123721 618.2275756853055 55.05254326381802
    vertex -626.7455502123687 617.327575685303 55.05254326381745
    vertex -626.3455502123685 599.2275756853055 55.05254326381741
  endloop
endfacet
facet normal -2.1789399552955714e-13 1.0 2.7204039587814676e-27
  outer loop
    vertex -636.8455502123687 601.2275756853032 55.05254326381747
    vertex -627.8455502123688 601.2275756853053 58.05254326381746
    vertex -628.8455502123688 601.2275756853053 55.05254326381746
  endloop
endfacet
facet normal -2.1789399552955714e-13 1.0 2.7204039587814676e-27
  outer loop
    vertex -627.8455502123688 601.2275756853053 58.05254326381746
    vertex -636.8455502123687 601.2275756853032 55.05254326381747
    vertex -637.8455502123687 601.2275756853032 58.05254326381753
  endloop
endfacet
facet normal 0.9149960547694505 -0.3494090222322031 -0.20173139304301899
  outer loop
    vertex -636.3803287706623 605.2644838027946 19.44317030346741
    vertex -649.3455502123718 576.4290336478455 10.581088913245203
    vertex -649.3455502123718 577.6790336478454 8.416025403784051
  endloop
endfacet
facet normal 0.8501366629140885 -0.20582164289302998 -0.4846700998474235
  outer loop
    vertex -639.087071769575 613.5166415719036 11.191012534355638
    vertex -636.3803287706623 605.2644838027946 19.44317030346741
    vertex -649.3455502123718 577.6790336478454 8.416025403784051
  endloop
endfacet
endsolid Skyprint
