solid Skyprint
facet normal -2.5597277326826516e-15 2.5738950235637737e-14 1.0
  outer loop
    vertex 162.8724921582775 312.3150335278137 601.0614672471663
    vertex 160.8537134151262 307.1514068423471 601.0614672471664
    vertex 165.50051208414416 307.7631694929095 601.0614672471663
  endloop
endfacet
facet normal -2.5597277326826516e-15 2.5738950235637737e-14 1.0
  outer loop
    vertex 160.8537134151262 307.1514068423471 601.0614672471664
    vertex 155.37249215827737 307.98490650889164 601.0614672471663
    vertex 158.0005120841443 303.433042473987 601.0614672471664
  endloop
endfacet
facet normal -2.5597277326826516e-15 2.5738950235637737e-14 1.0
  outer loop
    vertex 155.37249215827737 307.98490650889164 601.0614672471663
    vertex 160.8537134151262 307.1514068423471 601.0614672471664
    vertex 162.8724921582775 312.3150335278137 601.0614672471663
  endloop
endfacet
facet normal 0.79335334029126 -0.6087614290086881 4.048576183394082e-15
  outer loop
    vertex 158.0005120841443 303.433042473987 601.0614672471664
    vertex 160.85371341512604 307.15140684234683 590.0614672471673
    vertex 160.8537134151262 307.1514068423471 601.0614672471664
  endloop
endfacet
facet normal 0.79335334029126 -0.6087614290086881 4.048576183394082e-15
  outer loop
    vertex 160.85371341512604 307.15140684234683 590.0614672471673
    vertex 158.0005120841443 303.433042473987 601.0614672471664
    vertex 158.00051208414428 303.4330424739867 590.0614672471673
  endloop
endfacet
facet normal 0.8660254037844197 0.500000000000033 -2.6766780060534682e-14
  outer loop
    vertex 162.8724921582775 312.3150335278137 601.0614672471663
    vertex 165.50051208414408 307.7631694929092 590.0614672471672
    vertex 162.87249215827737 312.3150335278135 590.0614672471671
  endloop
endfacet
facet normal 0.8660254037844197 0.500000000000033 -2.6766780060534682e-14
  outer loop
    vertex 165.50051208414408 307.7631694929092 590.0614672471672
    vertex 162.8724921582775 312.3150335278137 601.0614672471663
    vertex 165.50051208414416 307.7631694929095 601.0614672471663
  endloop
endfacet
facet normal 2.5597277326825064e-15 -2.573895023563722e-14 -1.0
  outer loop
    vertex 155.37249215827745 307.9849065088914 590.0614672471672
    vertex 160.85371341512604 307.15140684234683 590.0614672471673
    vertex 158.00051208414428 303.4330424739867 590.0614672471673
  endloop
endfacet
facet normal 2.5597277326825064e-15 -2.573895023563722e-14 -1.0
  outer loop
    vertex 160.85371341512604 307.15140684234683 590.0614672471673
    vertex 155.37249215827745 307.9849065088914 590.0614672471672
    vertex 162.87249215827737 312.3150335278135 590.0614672471671
  endloop
endfacet
facet normal 2.5597277326825064e-15 -2.573895023563722e-14 -1.0
  outer loop
    vertex 162.87249215827737 312.3150335278135 590.0614672471671
    vertex 165.50051208414408 307.7631694929092 590.0614672471672
    vertex 160.85371341512604 307.15140684234683 590.0614672471673
  endloop
endfacet
facet normal -0.8660254037844227 -0.5000000000000278 1.0652685874544853e-14
  outer loop
    vertex 158.00051208414428 303.4330424739867 590.0614672471673
    vertex 155.37249215827737 307.98490650889164 601.0614672471663
    vertex 155.37249215827745 307.9849065088914 590.0614672471672
  endloop
endfacet
facet normal -0.8660254037844227 -0.5000000000000278 1.0652685874544853e-14
  outer loop
    vertex 155.37249215827737 307.98490650889164 601.0614672471663
    vertex 158.00051208414428 303.4330424739867 590.0614672471673
    vertex 158.0005120841443 303.433042473987 601.0614672471664
  endloop
endfacet
facet normal -0.49999999999998895 0.8660254037844451 -1.2230499270330025e-14
  outer loop
    vertex 162.87249215827737 312.3150335278135 590.0614672471671
    vertex 160.41909242907104 310.8985625337266 595.1602977272578
    vertex 160.4648315341433 310.9249700183525 595.5614672471667
  endloop
endfacet
facet normal -0.49999999999998895 0.8660254037844451 -1.2230499270330025e-14
  outer loop
    vertex 160.41909242907104 310.8985625337266 595.1602977272578
    vertex 162.87249215827737 312.3150335278135 590.0614672471671
    vertex 160.28499215827742 310.82113970628546 594.7864672471667
  endloop
endfacet
facet normal -0.49999999999998895 0.8660254037844451 -1.2230499270330025e-14
  outer loop
    vertex 160.28499215827742 310.82113970628546 594.7864672471667
    vertex 162.87249215827737 312.3150335278135 590.0614672471671
    vertex 160.07166943360588 310.6979777737721 594.4654517363275
  endloop
endfacet
facet normal -0.49999999999998895 0.8660254037844451 -1.2230499270330025e-14
  outer loop
    vertex 160.07166943360588 310.6979777737721 594.4654517363275
    vertex 162.87249215827737 312.3150335278135 590.0614672471671
    vertex 155.37249215827745 307.9849065088914 590.0614672471672
  endloop
endfacet
facet normal -0.49999999999998895 0.8660254037844451 -1.2230499270330025e-14
  outer loop
    vertex 160.07166943360588 310.6979777737721 594.4654517363275
    vertex 155.37249215827745 307.9849065088914 590.0614672471672
    vertex 159.79366184621034 310.5374700183525 594.2191278713009
  endloop
endfacet
facet normal -0.49999999999998895 0.8660254037844451 -1.2230499270330025e-14
  outer loop
    vertex 159.79366184621034 310.5374700183525 594.2191278713009
    vertex 155.37249215827745 307.9849065088914 590.0614672471672
    vertex 159.46991515374253 310.35055477830696 594.0642822164186
  endloop
endfacet
facet normal -0.49999999999998895 0.8660254037844451 -1.2230499270330025e-14
  outer loop
    vertex 159.46991515374253 310.35055477830696 594.0642822164186
    vertex 155.37249215827745 307.9849065088914 590.0614672471672
    vertex 159.12249215827737 310.1499700183525 594.0114672471668
  endloop
endfacet
facet normal -0.49999999999998895 0.8660254037844451 -1.2230499270330025e-14
  outer loop
    vertex 159.12249215827737 310.1499700183525 594.0114672471668
    vertex 155.37249215827745 307.9849065088914 590.0614672471672
    vertex 158.77506916281223 309.9493852583981 594.0642822164187
  endloop
endfacet
facet normal -0.49999999999998895 0.8660254037844451 -1.2230499270330025e-14
  outer loop
    vertex 158.77506916281223 309.9493852583981 594.0642822164187
    vertex 155.37249215827745 307.9849065088914 590.0614672471672
    vertex 158.45132247034445 309.76247001835253 594.219127871301
  endloop
endfacet
facet normal -0.49999999999998895 0.8660254037844451 -1.2230499270330025e-14
  outer loop
    vertex 158.45132247034445 309.76247001835253 594.219127871301
    vertex 155.37249215827745 307.9849065088914 590.0614672471672
    vertex 158.1733148829489 309.60196226293294 594.4654517363276
  endloop
endfacet
facet normal -0.49999999999998895 0.8660254037844451 -1.2230499270330025e-14
  outer loop
    vertex 158.1733148829489 309.60196226293294 594.4654517363276
    vertex 155.37249215827745 307.9849065088914 590.0614672471672
    vertex 157.95999215827734 309.47880033041963 594.7864672471668
  endloop
endfacet
facet normal -0.49999999999998895 0.8660254037844451 -1.2230499270330025e-14
  outer loop
    vertex 157.95999215827734 309.47880033041963 594.7864672471668
    vertex 155.37249215827745 307.9849065088914 590.0614672471672
    vertex 157.82589188748375 309.4013775029785 595.1602977272579
  endloop
endfacet
facet normal -0.49999999999998895 0.8660254037844451 -1.2230499270330025e-14
  outer loop
    vertex 157.82589188748375 309.4013775029785 595.1602977272579
    vertex 155.37249215827745 307.9849065088914 590.0614672471672
    vertex 157.7801527824115 309.3749700183526 595.5614672471668
  endloop
endfacet
facet normal -0.49999999999998895 0.8660254037844451 -1.2230499270330025e-14
  outer loop
    vertex 162.8724921582775 312.3150335278137 601.0614672471663
    vertex 160.07166943360588 310.6979777737721 596.6574827580059
    vertex 155.37249215827737 307.98490650889164 601.0614672471663
  endloop
endfacet
facet normal -0.49999999999998895 0.8660254037844451 -1.2230499270330025e-14
  outer loop
    vertex 160.07166943360588 310.6979777737721 596.6574827580059
    vertex 162.8724921582775 312.3150335278137 601.0614672471663
    vertex 160.28499215827742 310.82113970628546 596.3364672471668
  endloop
endfacet
facet normal -0.49999999999998895 0.8660254037844451 -1.2230499270330025e-14
  outer loop
    vertex 160.28499215827742 310.82113970628546 596.3364672471668
    vertex 162.8724921582775 312.3150335278137 601.0614672471663
    vertex 162.87249215827737 312.3150335278135 590.0614672471671
  endloop
endfacet
facet normal -0.49999999999998895 0.8660254037844451 -1.2230499270330025e-14
  outer loop
    vertex 160.28499215827742 310.82113970628546 596.3364672471668
    vertex 162.87249215827737 312.3150335278135 590.0614672471671
    vertex 160.41909242907104 310.8985625337266 595.9626367670757
  endloop
endfacet
facet normal -0.49999999999998895 0.8660254037844451 -1.2230499270330025e-14
  outer loop
    vertex 160.41909242907104 310.8985625337266 595.9626367670757
    vertex 162.87249215827737 312.3150335278135 590.0614672471671
    vertex 160.4648315341433 310.9249700183525 595.5614672471667
  endloop
endfacet
facet normal -0.49999999999998895 0.8660254037844451 -1.2230499270330025e-14
  outer loop
    vertex 155.37249215827737 307.98490650889164 601.0614672471663
    vertex 160.07166943360588 310.6979777737721 596.6574827580059
    vertex 159.79366184621034 310.53747001835256 596.9038066230326
  endloop
endfacet
facet normal -0.49999999999998895 0.8660254037844451 -1.2230499270330025e-14
  outer loop
    vertex 155.37249215827737 307.98490650889164 601.0614672471663
    vertex 159.79366184621034 310.53747001835256 596.9038066230326
    vertex 159.46991515374253 310.350554778307 597.0586522779148
  endloop
endfacet
facet normal -0.49999999999998895 0.8660254037844451 -1.2230499270330025e-14
  outer loop
    vertex 155.37249215827737 307.98490650889164 601.0614672471663
    vertex 159.46991515374253 310.350554778307 597.0586522779148
    vertex 159.1224921582774 310.1499700183525 597.1114672471668
  endloop
endfacet
facet normal -0.49999999999998895 0.8660254037844451 -1.2230499270330025e-14
  outer loop
    vertex 155.37249215827737 307.98490650889164 601.0614672471663
    vertex 159.1224921582774 310.1499700183525 597.1114672471668
    vertex 158.77506916281223 309.9493852583981 597.0586522779148
  endloop
endfacet
facet normal -0.49999999999998895 0.8660254037844451 -1.2230499270330025e-14
  outer loop
    vertex 155.37249215827737 307.98490650889164 601.0614672471663
    vertex 158.77506916281223 309.9493852583981 597.0586522779148
    vertex 158.45132247034445 309.7624700183526 596.9038066230327
  endloop
endfacet
facet normal -0.49999999999998895 0.8660254037844451 -1.2230499270330025e-14
  outer loop
    vertex 155.37249215827737 307.98490650889164 601.0614672471663
    vertex 158.45132247034445 309.7624700183526 596.9038066230327
    vertex 158.1733148829489 309.601962262933 596.6574827580059
  endloop
endfacet
facet normal -0.49999999999998895 0.8660254037844451 -1.2230499270330025e-14
  outer loop
    vertex 155.37249215827737 307.98490650889164 601.0614672471663
    vertex 158.1733148829489 309.601962262933 596.6574827580059
    vertex 157.95999215827737 309.47880033041963 596.3364672471668
  endloop
endfacet
facet normal -0.49999999999998895 0.8660254037844451 -1.2230499270330025e-14
  outer loop
    vertex 155.37249215827737 307.98490650889164 601.0614672471663
    vertex 157.95999215827737 309.47880033041963 596.3364672471668
    vertex 157.82589188748375 309.4013775029785 595.9626367670757
  endloop
endfacet
facet normal -0.49999999999998895 0.8660254037844451 -1.2230499270330025e-14
  outer loop
    vertex 155.37249215827737 307.98490650889164 601.0614672471663
    vertex 157.82589188748375 309.4013775029785 595.9626367670757
    vertex 157.7801527824115 309.3749700183526 595.5614672471668
  endloop
endfacet
facet normal -0.49999999999998895 0.8660254037844451 -1.2230499270330025e-14
  outer loop
    vertex 155.37249215827737 307.98490650889164 601.0614672471663
    vertex 157.7801527824115 309.3749700183526 595.5614672471668
    vertex 155.37249215827745 307.9849065088914 590.0614672471672
  endloop
endfacet
facet normal 0.13052619222012787 -0.9914448613738004 2.9973151690067744e-14
  outer loop
    vertex 160.8537134151262 307.1514068423471 601.0614672471664
    vertex 165.50051208414408 307.7631694929092 590.0614672471672
    vertex 165.50051208414416 307.7631694929095 601.0614672471663
  endloop
endfacet
facet normal 0.13052619222012787 -0.9914448613738004 2.9973151690067744e-14
  outer loop
    vertex 165.50051208414408 307.7631694929092 590.0614672471672
    vertex 160.8537134151262 307.1514068423471 601.0614672471664
    vertex 160.85371341512604 307.15140684234683 590.0614672471673
  endloop
endfacet
facet normal -0.8001031451912795 -0.4619397662556334 -0.38268343236507324
  outer loop
    vertex 161.7849921582774 308.2230634949321 596.3364672471668
    vertex 160.41909242907104 310.8985625337266 595.9626367670757
    vertex 161.919092429071 308.30048632237316 595.9626367670757
  endloop
endfacet
facet normal -0.8001031451912795 -0.4619397662556334 -0.38268343236507324
  outer loop
    vertex 160.41909242907104 310.8985625337266 595.9626367670757
    vertex 161.7849921582774 308.2230634949321 596.3364672471668
    vertex 160.28499215827742 310.82113970628546 596.3364672471668
  endloop
endfacet
facet normal -0.6870641468694486 -0.39667667014558866 0.6087614290087413
  outer loop
    vertex 161.7849921582774 308.2230634949321 594.7864672471667
    vertex 160.07166943360588 310.6979777737721 594.4654517363275
    vertex 161.57166943360585 308.09990156241867 594.4654517363275
  endloop
endfacet
facet normal -0.6870641468694486 -0.39667667014558866 0.6087614290087413
  outer loop
    vertex 160.07166943360588 310.6979777737721 594.4654517363275
    vertex 161.7849921582774 308.2230634949321 594.7864672471667
    vertex 160.28499215827742 310.82113970628546 594.7864672471667
  endloop
endfacet
facet normal -0.33141357403562116 -0.1913417161825398 0.9238795325112774
  outer loop
    vertex 159.79366184621034 310.5374700183525 594.2191278713009
    vertex 160.96991515374248 307.7524785669536 594.0642822164186
    vertex 161.2936618462103 307.93939380699913 594.2191278713009
  endloop
endfacet
facet normal -0.33141357403562116 -0.1913417161825398 0.9238795325112774
  outer loop
    vertex 160.96991515374248 307.7524785669536 594.0642822164186
    vertex 159.79366184621034 310.5374700183525 594.2191278713009
    vertex 159.46991515374253 310.35055477830696 594.0642822164186
  endloop
endfacet
facet normal -0.11303899832185714 -0.06526309611003327 0.9914448613738052
  outer loop
    vertex 159.46991515374253 310.35055477830696 594.0642822164186
    vertex 160.62249215827734 307.55189380699915 594.0114672471668
    vertex 160.96991515374248 307.7524785669536 594.0642822164186
  endloop
endfacet
facet normal -0.11303899832185714 -0.06526309611003327 0.9914448613738052
  outer loop
    vertex 160.62249215827734 307.55189380699915 594.0114672471668
    vertex 159.46991515374253 310.35055477830696 594.0642822164186
    vertex 159.12249215827737 310.1499700183525 594.0114672471668
  endloop
endfacet
facet normal 0.11303899832186391 0.06526309611006387 0.9914448613738025
  outer loop
    vertex 159.12249215827737 310.1499700183525 594.0114672471668
    vertex 160.2750691628122 307.35130904704465 594.0642822164187
    vertex 160.62249215827734 307.55189380699915 594.0114672471668
  endloop
endfacet
facet normal 0.11303899832186391 0.06526309611006387 0.9914448613738025
  outer loop
    vertex 160.2750691628122 307.35130904704465 594.0642822164187
    vertex 159.12249215827737 310.1499700183525 594.0114672471668
    vertex 158.77506916281223 309.9493852583981 594.0642822164187
  endloop
endfacet
facet normal 0.33141357403562743 0.1913417161825683 0.9238795325112692
  outer loop
    vertex 158.77506916281223 309.9493852583981 594.0642822164187
    vertex 159.9513224703444 307.16439380699916 594.219127871301
    vertex 160.2750691628122 307.35130904704465 594.0642822164187
  endloop
endfacet
facet normal 0.33141357403562743 0.1913417161825683 0.9238795325112692
  outer loop
    vertex 159.9513224703444 307.16439380699916 594.219127871301
    vertex 158.77506916281223 309.9493852583981 594.0642822164187
    vertex 158.45132247034445 309.76247001835253 594.219127871301
  endloop
endfacet
facet normal 0.5272028623656283 0.30438071450433213 0.793353340291273
  outer loop
    vertex 158.45132247034445 309.76247001835253 594.219127871301
    vertex 159.67331488294886 307.00388605157957 594.4654517363276
    vertex 159.9513224703444 307.16439380699916 594.219127871301
  endloop
endfacet
facet normal 0.5272028623656283 0.30438071450433213 0.793353340291273
  outer loop
    vertex 159.67331488294886 307.00388605157957 594.4654517363276
    vertex 158.45132247034445 309.76247001835253 594.219127871301
    vertex 158.1733148829489 309.60196226293294 594.4654517363276
  endloop
endfacet
facet normal 0.6870641468694526 0.3966766701456074 0.6087614290087244
  outer loop
    vertex 157.95999215827734 309.47880033041963 594.7864672471668
    vertex 159.67331488294886 307.00388605157957 594.4654517363276
    vertex 158.1733148829489 309.60196226293294 594.4654517363276
  endloop
endfacet
facet normal 0.6870641468694526 0.3966766701456074 0.6087614290087244
  outer loop
    vertex 159.67331488294886 307.00388605157957 594.4654517363276
    vertex 157.95999215827734 309.47880033041963 594.7864672471668
    vertex 159.4599921582773 306.8807241190662 594.7864672471668
  endloop
endfacet
facet normal 0.8001031451912795 0.4619397662556334 0.38268343236507324
  outer loop
    vertex 157.82589188748375 309.4013775029785 595.1602977272579
    vertex 159.4599921582773 306.8807241190662 594.7864672471668
    vertex 157.95999215827734 309.47880033041963 594.7864672471668
  endloop
endfacet
facet normal 0.8001031451912795 0.4619397662556334 0.38268343236507324
  outer loop
    vertex 159.4599921582773 306.8807241190662 594.7864672471668
    vertex 157.82589188748375 309.4013775029785 595.1602977272579
    vertex 159.3258918874837 306.80330129162513 595.1602977272579
  endloop
endfacet
facet normal -0.8586164364012765 -0.4957224306868876 0.13052619222001743
  outer loop
    vertex 161.96483153414326 308.3268938069991 595.5614672471667
    vertex 160.41909242907104 310.8985625337266 595.1602977272578
    vertex 161.919092429071 308.30048632237316 595.1602977272578
  endloop
endfacet
facet normal -0.8586164364012765 -0.4957224306868876 0.13052619222001743
  outer loop
    vertex 160.41909242907104 310.8985625337266 595.1602977272578
    vertex 161.96483153414326 308.3268938069991 595.5614672471667
    vertex 160.4648315341433 310.9249700183525 595.5614672471667
  endloop
endfacet
facet normal -0.8001031451912768 -0.46193976625562155 0.3826834323650929
  outer loop
    vertex 161.919092429071 308.30048632237316 595.1602977272578
    vertex 160.28499215827742 310.82113970628546 594.7864672471667
    vertex 161.7849921582774 308.2230634949321 594.7864672471667
  endloop
endfacet
facet normal -0.8001031451912768 -0.46193976625562155 0.3826834323650929
  outer loop
    vertex 160.28499215827742 310.82113970628546 594.7864672471667
    vertex 161.919092429071 308.30048632237316 595.1602977272578
    vertex 160.41909242907104 310.8985625337266 595.1602977272578
  endloop
endfacet
facet normal -0.49999999999998124 0.8660254037844496 -1.1657604117663842e-14
  outer loop
    vertex 161.919092429071 308.30048632237316 595.1602977272578
    vertex 161.919092429071 308.30048632237316 595.9626367670757
    vertex 161.96483153414326 308.3268938069991 595.5614672471667
  endloop
endfacet
facet normal -0.49999999999998124 0.8660254037844496 -1.1657604117663842e-14
  outer loop
    vertex 161.919092429071 308.30048632237316 595.9626367670757
    vertex 161.919092429071 308.30048632237316 595.1602977272578
    vertex 161.7849921582774 308.2230634949321 594.7864672471667
  endloop
endfacet
facet normal -0.49999999999998124 0.8660254037844496 -1.1657604117663842e-14
  outer loop
    vertex 161.919092429071 308.30048632237316 595.9626367670757
    vertex 161.7849921582774 308.2230634949321 594.7864672471667
    vertex 161.7849921582774 308.2230634949321 596.3364672471668
  endloop
endfacet
facet normal -0.49999999999998124 0.8660254037844496 -1.1657604117663842e-14
  outer loop
    vertex 161.7849921582774 308.2230634949321 596.3364672471668
    vertex 161.7849921582774 308.2230634949321 594.7864672471667
    vertex 161.57166943360585 308.09990156241867 594.4654517363275
  endloop
endfacet
facet normal -0.49999999999998124 0.8660254037844496 -1.1657604117663842e-14
  outer loop
    vertex 161.7849921582774 308.2230634949321 596.3364672471668
    vertex 161.57166943360585 308.09990156241867 594.4654517363275
    vertex 161.57166943360585 308.0999015624187 596.6574827580059
  endloop
endfacet
facet normal -0.49999999999998124 0.8660254037844496 -1.1657604117663842e-14
  outer loop
    vertex 161.57166943360585 308.0999015624187 596.6574827580059
    vertex 161.57166943360585 308.09990156241867 594.4654517363275
    vertex 161.2936618462103 307.93939380699913 594.2191278713009
  endloop
endfacet
facet normal -0.49999999999998124 0.8660254037844496 -1.1657604117663842e-14
  outer loop
    vertex 161.57166943360585 308.0999015624187 596.6574827580059
    vertex 161.2936618462103 307.93939380699913 594.2191278713009
    vertex 161.2936618462103 307.93939380699913 596.9038066230326
  endloop
endfacet
facet normal -0.49999999999998124 0.8660254037844496 -1.1657604117663842e-14
  outer loop
    vertex 161.2936618462103 307.93939380699913 596.9038066230326
    vertex 161.2936618462103 307.93939380699913 594.2191278713009
    vertex 160.96991515374248 307.7524785669536 594.0642822164186
  endloop
endfacet
facet normal -0.49999999999998124 0.8660254037844496 -1.1657604117663842e-14
  outer loop
    vertex 161.2936618462103 307.93939380699913 596.9038066230326
    vertex 160.96991515374248 307.7524785669536 594.0642822164186
    vertex 160.9699151537425 307.75247856695364 597.0586522779148
  endloop
endfacet
facet normal -0.49999999999998124 0.8660254037844496 -1.1657604117663842e-14
  outer loop
    vertex 160.9699151537425 307.75247856695364 597.0586522779148
    vertex 160.96991515374248 307.7524785669536 594.0642822164186
    vertex 160.62249215827734 307.55189380699915 594.0114672471668
  endloop
endfacet
facet normal -0.49999999999998124 0.8660254037844496 -1.1657604117663842e-14
  outer loop
    vertex 160.9699151537425 307.75247856695364 597.0586522779148
    vertex 160.62249215827734 307.55189380699915 594.0114672471668
    vertex 160.62249215827737 307.55189380699915 597.1114672471668
  endloop
endfacet
facet normal -0.49999999999998124 0.8660254037844496 -1.1657604117663842e-14
  outer loop
    vertex 160.62249215827737 307.55189380699915 597.1114672471668
    vertex 160.62249215827734 307.55189380699915 594.0114672471668
    vertex 160.2750691628122 307.35130904704465 594.0642822164187
  endloop
endfacet
facet normal -0.49999999999998124 0.8660254037844496 -1.1657604117663842e-14
  outer loop
    vertex 160.62249215827737 307.55189380699915 597.1114672471668
    vertex 160.2750691628122 307.35130904704465 594.0642822164187
    vertex 160.2750691628122 307.35130904704477 597.0586522779148
  endloop
endfacet
facet normal -0.49999999999998124 0.8660254037844496 -1.1657604117663842e-14
  outer loop
    vertex 160.2750691628122 307.35130904704477 597.0586522779148
    vertex 160.2750691628122 307.35130904704465 594.0642822164187
    vertex 159.9513224703444 307.16439380699916 594.219127871301
  endloop
endfacet
facet normal -0.49999999999998124 0.8660254037844496 -1.1657604117663842e-14
  outer loop
    vertex 160.2750691628122 307.35130904704477 597.0586522779148
    vertex 159.9513224703444 307.16439380699916 594.219127871301
    vertex 159.9513224703444 307.1643938069992 596.9038066230327
  endloop
endfacet
facet normal -0.49999999999998124 0.8660254037844496 -1.1657604117663842e-14
  outer loop
    vertex 159.9513224703444 307.1643938069992 596.9038066230327
    vertex 159.9513224703444 307.16439380699916 594.219127871301
    vertex 159.67331488294886 307.00388605157957 594.4654517363276
  endloop
endfacet
facet normal -0.49999999999998124 0.8660254037844496 -1.1657604117663842e-14
  outer loop
    vertex 159.9513224703444 307.1643938069992 596.9038066230327
    vertex 159.67331488294886 307.00388605157957 594.4654517363276
    vertex 159.67331488294886 307.0038860515796 596.6574827580059
  endloop
endfacet
facet normal -0.49999999999998124 0.8660254037844496 -1.1657604117663842e-14
  outer loop
    vertex 159.67331488294886 307.0038860515796 596.6574827580059
    vertex 159.67331488294886 307.00388605157957 594.4654517363276
    vertex 159.4599921582773 306.8807241190662 594.7864672471668
  endloop
endfacet
facet normal -0.49999999999998124 0.8660254037844496 -1.1657604117663842e-14
  outer loop
    vertex 159.67331488294886 307.0038860515796 596.6574827580059
    vertex 159.4599921582773 306.8807241190662 594.7864672471668
    vertex 159.45999215827732 306.8807241190662 596.3364672471668
  endloop
endfacet
facet normal -0.49999999999998124 0.8660254037844496 -1.1657604117663842e-14
  outer loop
    vertex 159.45999215827732 306.8807241190662 596.3364672471668
    vertex 159.4599921582773 306.8807241190662 594.7864672471668
    vertex 159.3258918874837 306.80330129162513 595.1602977272579
  endloop
endfacet
facet normal -0.49999999999998124 0.8660254037844496 -1.1657604117663842e-14
  outer loop
    vertex 159.45999215827732 306.8807241190662 596.3364672471668
    vertex 159.3258918874837 306.80330129162513 595.1602977272579
    vertex 159.3258918874837 306.80330129162513 595.9626367670757
  endloop
endfacet
facet normal -0.49999999999998124 0.8660254037844496 -1.1657604117663842e-14
  outer loop
    vertex 159.3258918874837 306.80330129162513 595.9626367670757
    vertex 159.3258918874837 306.80330129162513 595.1602977272579
    vertex 159.28015278241145 306.77689380699917 595.5614672471668
  endloop
endfacet
facet normal -0.5272028623656231 -0.3043807145043077 0.7933533402912861
  outer loop
    vertex 160.07166943360588 310.6979777737721 594.4654517363275
    vertex 161.2936618462103 307.93939380699913 594.2191278713009
    vertex 161.57166943360585 308.09990156241867 594.4654517363275
  endloop
endfacet
facet normal -0.5272028623656231 -0.3043807145043077 0.7933533402912861
  outer loop
    vertex 161.2936618462103 307.93939380699913 594.2191278713009
    vertex 160.07166943360588 310.6979777737721 594.4654517363275
    vertex 159.79366184621034 310.5374700183525 594.2191278713009
  endloop
endfacet
facet normal -0.8586164364012774 -0.4957224306868916 -0.13052619221999628
  outer loop
    vertex 161.919092429071 308.30048632237316 595.9626367670757
    vertex 160.4648315341433 310.9249700183525 595.5614672471667
    vertex 161.96483153414326 308.3268938069991 595.5614672471667
  endloop
endfacet
facet normal -0.8586164364012774 -0.4957224306868916 -0.13052619221999628
  outer loop
    vertex 160.4648315341433 310.9249700183525 595.5614672471667
    vertex 161.919092429071 308.30048632237316 595.9626367670757
    vertex 160.41909242907104 310.8985625337266 595.9626367670757
  endloop
endfacet
facet normal 0.6870641468694486 0.39667667014558866 -0.6087614290087413
  outer loop
    vertex 158.1733148829489 309.601962262933 596.6574827580059
    vertex 159.45999215827732 306.8807241190662 596.3364672471668
    vertex 157.95999215827737 309.47880033041963 596.3364672471668
  endloop
endfacet
facet normal 0.6870641468694486 0.39667667014558866 -0.6087614290087413
  outer loop
    vertex 159.45999215827732 306.8807241190662 596.3364672471668
    vertex 158.1733148829489 309.601962262933 596.6574827580059
    vertex 159.67331488294886 307.0038860515796 596.6574827580059
  endloop
endfacet
facet normal 0.8586164364012774 0.4957224306868916 0.13052619221999628
  outer loop
    vertex 157.7801527824115 309.3749700183526 595.5614672471668
    vertex 159.3258918874837 306.80330129162513 595.1602977272579
    vertex 157.82589188748375 309.4013775029785 595.1602977272579
  endloop
endfacet
facet normal 0.8586164364012774 0.4957224306868916 0.13052619221999628
  outer loop
    vertex 159.3258918874837 306.80330129162513 595.1602977272579
    vertex 157.7801527824115 309.3749700183526 595.5614672471668
    vertex 159.28015278241145 306.77689380699917 595.5614672471668
  endloop
endfacet
facet normal 0.8001031451912768 0.46193976625562155 -0.3826834323650929
  outer loop
    vertex 157.95999215827737 309.47880033041963 596.3364672471668
    vertex 159.3258918874837 306.80330129162513 595.9626367670757
    vertex 157.82589188748375 309.4013775029785 595.9626367670757
  endloop
endfacet
facet normal 0.8001031451912768 0.46193976625562155 -0.3826834323650929
  outer loop
    vertex 159.3258918874837 306.80330129162513 595.9626367670757
    vertex 157.95999215827737 309.47880033041963 596.3364672471668
    vertex 159.45999215827732 306.8807241190662 596.3364672471668
  endloop
endfacet
facet normal 0.5272028623656231 0.3043807145043077 -0.7933533402912861
  outer loop
    vertex 158.1733148829489 309.601962262933 596.6574827580059
    vertex 159.9513224703444 307.1643938069992 596.9038066230327
    vertex 159.67331488294886 307.0038860515796 596.6574827580059
  endloop
endfacet
facet normal 0.5272028623656231 0.3043807145043077 -0.7933533402912861
  outer loop
    vertex 159.9513224703444 307.1643938069992 596.9038066230327
    vertex 158.1733148829489 309.601962262933 596.6574827580059
    vertex 158.45132247034445 309.7624700183526 596.9038066230327
  endloop
endfacet
facet normal 0.33141357403562116 0.1913417161825398 -0.9238795325112774
  outer loop
    vertex 158.45132247034445 309.7624700183526 596.9038066230327
    vertex 160.2750691628122 307.35130904704477 597.0586522779148
    vertex 159.9513224703444 307.1643938069992 596.9038066230327
  endloop
endfacet
facet normal 0.33141357403562116 0.1913417161825398 -0.9238795325112774
  outer loop
    vertex 160.2750691628122 307.35130904704477 597.0586522779148
    vertex 158.45132247034445 309.7624700183526 596.9038066230327
    vertex 158.77506916281223 309.9493852583981 597.0586522779148
  endloop
endfacet
facet normal 0.11303899832185714 0.06526309611003327 -0.9914448613738052
  outer loop
    vertex 160.2750691628122 307.35130904704477 597.0586522779148
    vertex 159.1224921582774 310.1499700183525 597.1114672471668
    vertex 160.62249215827737 307.55189380699915 597.1114672471668
  endloop
endfacet
facet normal 0.11303899832185714 0.06526309611003327 -0.9914448613738052
  outer loop
    vertex 159.1224921582774 310.1499700183525 597.1114672471668
    vertex 160.2750691628122 307.35130904704477 597.0586522779148
    vertex 158.77506916281223 309.9493852583981 597.0586522779148
  endloop
endfacet
facet normal -0.11303899832186391 -0.06526309611006387 -0.9914448613738025
  outer loop
    vertex 159.1224921582774 310.1499700183525 597.1114672471668
    vertex 160.9699151537425 307.75247856695364 597.0586522779148
    vertex 160.62249215827737 307.55189380699915 597.1114672471668
  endloop
endfacet
facet normal -0.11303899832186391 -0.06526309611006387 -0.9914448613738025
  outer loop
    vertex 160.9699151537425 307.75247856695364 597.0586522779148
    vertex 159.1224921582774 310.1499700183525 597.1114672471668
    vertex 159.46991515374253 310.350554778307 597.0586522779148
  endloop
endfacet
facet normal -0.33141357403562743 -0.1913417161825683 -0.9238795325112692
  outer loop
    vertex 159.46991515374253 310.350554778307 597.0586522779148
    vertex 161.2936618462103 307.93939380699913 596.9038066230326
    vertex 160.9699151537425 307.75247856695364 597.0586522779148
  endloop
endfacet
facet normal -0.33141357403562743 -0.1913417161825683 -0.9238795325112692
  outer loop
    vertex 161.2936618462103 307.93939380699913 596.9038066230326
    vertex 159.46991515374253 310.350554778307 597.0586522779148
    vertex 159.79366184621034 310.53747001835256 596.9038066230326
  endloop
endfacet
facet normal -0.5272028623656283 -0.30438071450433213 -0.793353340291273
  outer loop
    vertex 159.79366184621034 310.53747001835256 596.9038066230326
    vertex 161.57166943360585 308.0999015624187 596.6574827580059
    vertex 161.2936618462103 307.93939380699913 596.9038066230326
  endloop
endfacet
facet normal -0.5272028623656283 -0.30438071450433213 -0.793353340291273
  outer loop
    vertex 161.57166943360585 308.0999015624187 596.6574827580059
    vertex 159.79366184621034 310.53747001835256 596.9038066230326
    vertex 160.07166943360588 310.6979777737721 596.6574827580059
  endloop
endfacet
facet normal 0.8586164364012765 0.4957224306868876 -0.13052619222001743
  outer loop
    vertex 157.82589188748375 309.4013775029785 595.9626367670757
    vertex 159.28015278241145 306.77689380699917 595.5614672471668
    vertex 157.7801527824115 309.3749700183526 595.5614672471668
  endloop
endfacet
facet normal 0.8586164364012765 0.4957224306868876 -0.13052619222001743
  outer loop
    vertex 159.28015278241145 306.77689380699917 595.5614672471668
    vertex 157.82589188748375 309.4013775029785 595.9626367670757
    vertex 159.3258918874837 306.80330129162513 595.9626367670757
  endloop
endfacet
facet normal -0.6870641468694526 -0.3966766701456074 -0.6087614290087244
  outer loop
    vertex 161.57166943360585 308.0999015624187 596.6574827580059
    vertex 160.28499215827742 310.82113970628546 596.3364672471668
    vertex 161.7849921582774 308.2230634949321 596.3364672471668
  endloop
endfacet
facet normal -0.6870641468694526 -0.3966766701456074 -0.6087614290087244
  outer loop
    vertex 160.28499215827742 310.82113970628546 596.3364672471668
    vertex 161.57166943360585 308.0999015624187 596.6574827580059
    vertex 160.07166943360588 310.6979777737721 596.6574827580059
  endloop
endfacet
endsolid Skyprint
